# xmcd
#
# Track frame offsets:
# 150
# 25005
# 39675
# 71038
# 84110
# 108380
# 122025
# 134235
# 156685
# 177980
#
# Disc length: 2853 seconds
#
# Revision: 0
# Processed by: cddbd v1.4PL0 Copyright (c) Steve Scherf et al.
# Submitted via: Audion 2.5.0 (http://www.panic.com/audion/)
#
DISCID=8d0b230a
DTITLE=Justin Bennett - Demolitions
DYEAR=1900
DGENRE=
TTITLE0=Demolition (1)
TTITLE1=Mart
TTITLE2=Vent
TTITLE3=Kraak
TTITLE4=Circus
TTITLE5=Fluxus
TTITLE6=Panorama
TTITLE7=Stof
TTITLE8=Demolition (2)
TTITLE9=Shelter
EXTD=
EXTT0=
EXTT1=
EXTT2=
EXTT3=
EXTT4=
EXTT5=
EXTT6=
EXTT7=
EXTT8=
EXTT9=
PLAYORDER=
